# Blender v2.82 (sub 7) OBJ File: 'FireSpell.blend'
# www.blender.org
o Torus
v 1.128878 0.762156 0.026603
v 0.729702 0.555540 -0.122768
v 0.838922 0.329683 -0.161293
v 1.150293 0.328268 0.073566
v 0.767708 0.751074 -0.450939
v 0.859727 0.260674 -0.688080
v 1.084360 0.477106 -0.650906
v 0.892639 0.717081 -0.742062
v 0.479554 0.504001 -0.584000
v 0.550546 0.263271 -0.652471
v -0.200666 0.528862 -1.135698
v 0.432050 0.240315 -1.138205
v 0.257617 0.419388 -1.259285
v 0.146129 0.543438 -0.821462
v -0.245398 0.289068 -0.738115
v -0.238405 0.017264 -0.951856
v -0.241928 0.072399 -1.149157
v -0.680730 0.434348 -0.750064
v -0.441312 0.046859 -0.685730
v -0.802895 0.294389 -0.981710
v -0.628510 0.122499 -0.391360
v -0.960041 0.042973 -0.785564
v -0.813283 0.337648 -0.269807
v -1.025474 -0.139886 -0.355903
v -1.270268 0.121879 0.159280
v -1.121728 0.340058 0.063670
v -0.794076 -0.038839 0.183672
v -0.703282 0.208483 0.291452
v -0.797437 0.375876 0.506590
v -1.018328 -0.134003 0.365599
v -0.783830 0.371827 0.937234
v -0.550455 0.149048 1.157477
v -0.272620 0.008901 0.982167
v -0.055819 0.576921 0.982762
v -0.216231 0.287942 0.716074
v 0.277687 0.541502 1.216572
v 0.298934 0.400498 0.677296
v 0.507052 0.208811 1.083313
v 0.703279 0.302570 0.494029
v 0.676906 0.626463 0.317742
v 0.956074 0.619300 0.785945
v 0.782550 0.757737 0.709988
v 1.244798 0.534408 0.250532
v -0.144151 0.819028 -0.486162
v -0.207040 0.499588 -0.629115
v 0.058474 0.015147 -0.531735
v 0.008546 -0.244490 -0.086764
v 0.283495 0.791483 -0.461155
v 0.195426 0.337515 -0.637683
v 0.119163 0.981813 -0.276607
v 0.417401 0.576419 -0.480061
v 0.362534 0.043515 -0.417838
v 0.117819 -0.185069 -0.277693
v 0.593349 0.459840 -0.310243
v 0.226247 1.010244 -0.122398
v 0.574565 0.082347 -0.062678
v 0.604679 0.596504 0.185065
v 0.652154 0.338026 0.057737
v 0.361686 -0.152804 -0.043365
v 0.493677 0.847298 0.030375
v 0.513222 0.223196 0.375963
v 0.397636 -0.022041 0.300993
v 0.345914 0.723537 0.455255
v 0.213276 0.961354 0.286627
v 0.322164 0.415187 0.578132
v 0.149345 -0.212834 0.180604
v 0.051489 0.656463 0.602219
v 0.006041 0.338963 0.650266
v 0.073693 -0.022935 0.511267
v -0.235511 0.733603 0.532205
v -0.264641 0.200242 0.577627
v -0.026360 1.048614 0.077411
v -0.362799 -0.036330 0.349166
v -0.200073 0.996606 0.206882
v -0.489397 0.779622 0.232902
v -0.582132 0.424412 0.323194
v -0.594099 0.147925 0.127943
v -0.648605 0.353559 -0.154694
v -0.348889 -0.149123 0.078763
v -0.101656 -0.227025 0.146392
v -0.497533 0.832762 -0.111218
v -0.438553 0.773547 -0.316659
v -0.544793 0.406039 -0.370727
v -0.341361 -0.135228 -0.203235
v -0.140807 1.009211 -0.204466
v -0.329078 0.077261 -0.484704
vt 0.718872 0.610115
vt 0.691676 0.482668
vt 0.718872 0.417126
vt 0.796950 0.082365
vt 0.831721 0.001114
vt 0.831721 0.137080
vt 0.721100 0.535825
vt 0.754927 0.417126
vt 0.754927 0.569616
vt 0.842439 0.341828
vt 0.808205 0.301420
vt 0.842439 0.207952
vt 0.315267 0.902789
vt 0.273082 0.815812
vt 0.315267 0.815154
vt 0.674307 0.343918
vt 0.626947 0.321929
vt 0.674307 0.207952
vt 0.844667 0.216401
vt 0.887076 0.207952
vt 0.887076 0.303269
vt 0.332914 0.625755
vt 0.290612 0.487220
vt 0.332914 0.454866
vt 0.229354 0.385064
vt 0.280974 0.196330
vt 0.280974 0.396901
vt 0.923343 0.289833
vt 0.908247 0.213485
vt 0.923343 0.089262
vt 0.844713 0.612342
vt 0.844713 0.753291
vt 0.814125 0.710970
vt 0.638361 0.122450
vt 0.679963 0.001114
vt 0.679963 0.134249
vt 0.129632 0.502709
vt 0.150344 0.358081
vt 0.150344 0.550116
vt 0.348712 0.193148
vt 0.290612 0.086480
vt 0.348712 0.001114
vt 0.440096 0.916055
vt 0.440096 0.971899
vt 0.392901 0.939074
vt 0.767872 0.391349
vt 0.740848 0.284278
vt 0.767872 0.207952
vt 0.127404 0.358081
vt 0.127404 0.491957
vt 0.087470 0.531895
vt 0.078714 0.379657
vt 0.127404 0.668005
vt 0.083486 0.628472
vt 0.127404 0.534123
vt 0.945535 0.931718
vt 0.912597 0.882367
vt 0.945535 0.841474
vt 0.493755 0.384691
vt 0.447277 0.321584
vt 0.493755 0.196029
vt 0.281154 0.540495
vt 0.281154 0.663112
vt 0.229354 0.607077
vt 0.053997 0.354589
vt 0.073963 0.240577
vt 0.073963 0.406742
vt 0.811098 0.876326
vt 0.777587 0.837500
vt 0.811098 0.753709
vt 0.548128 0.369423
vt 0.585860 0.207952
vt 0.585860 0.414898
vt 0.624730 0.598950
vt 0.587025 0.448976
vt 0.624730 0.417126
vt 0.227126 0.157718
vt 0.154059 0.090884
vt 0.227126 0.001114
vt 0.910369 0.910160
vt 0.890134 0.837415
vt 0.910369 0.755519
vt 0.626958 0.514327
vt 0.664827 0.417126
vt 0.664827 0.582946
vt 0.753860 0.030853
vt 0.794722 0.001114
vt 0.794722 0.121052
vt 0.877709 0.741579
vt 0.846940 0.704820
vt 0.877709 0.612342
vt 0.536206 0.205724
vt 0.496727 0.154172
vt 0.536206 0.001114
vt 0.496727 0.358863
vt 0.545900 0.207952
vt 0.545900 0.370531
vt 0.396777 0.001114
vt 0.396777 0.205724
vt 0.350939 0.154365
vt 0.350939 0.237501
vt 0.408579 0.207952
vt 0.408579 0.366672
vt 0.448971 0.393270
vt 0.448971 0.452639
vt 0.290612 0.430067
vt 0.634520 0.690743
vt 0.634520 0.794469
vt 0.587025 0.697235
vt 0.624719 0.207952
vt 0.624719 0.384443
vt 0.588088 0.337723
vt 0.151831 0.188943
vt 0.078714 0.114411
vt 0.151831 0.001114
vt 0.078714 0.220856
vt 0.143167 0.191170
vt 0.143167 0.355853
vt 0.805977 0.342139
vt 0.770100 0.326853
vt 0.805977 0.207952
vt 0.494499 0.193801
vt 0.447277 0.103287
vt 0.494499 0.001114
vt 0.682191 0.039437
vt 0.723678 0.001114
vt 0.723678 0.132719
vt 0.736396 0.738047
vt 0.775359 0.612342
vt 0.775359 0.739691
vt 0.853321 0.755519
vt 0.853321 0.866418
vt 0.814125 0.819088
vt 0.270854 0.837123
vt 0.229354 0.829527
vt 0.270854 0.726224
vt 0.229354 0.081261
vt 0.288384 0.001114
vt 0.288384 0.194102
vt 0.226788 0.705194
vt 0.226788 0.835510
vt 0.203427 0.776129
vt 0.538434 0.192175
vt 0.625768 0.153991
vt 0.625768 0.205724
vt 0.836615 0.408177
vt 0.770100 0.401425
vt 0.836615 0.344367
vt 0.914888 0.305497
vt 0.914888 0.430633
vt 0.889280 0.367255
vt 0.676535 0.241507
vt 0.708249 0.207952
vt 0.708249 0.378841
vt 0.290612 0.256347
vt 0.343889 0.195376
vt 0.343889 0.391043
vt 0.801709 0.487274
vt 0.837685 0.417126
vt 0.837685 0.545396
vt 0.538434 0.024816
vt 0.590807 0.001114
vt 0.590807 0.147217
vt 0.887907 0.876983
vt 0.855549 0.866360
vt 0.887907 0.755519
vt 0.484652 0.723203
vt 0.484652 0.838671
vt 0.443664 0.744457
vt 0.229354 0.485466
vt 0.286528 0.399129
vt 0.286528 0.538267
vt 0.811898 0.751481
vt 0.777587 0.683320
vt 0.811898 0.612342
vt 0.154059 0.431111
vt 0.201854 0.338664
vt 0.201854 0.522062
vt 0.569693 0.650383
vt 0.569693 0.760813
vt 0.523616 0.743120
vt 0.415078 0.777304
vt 0.439010 0.612872
vt 0.439010 0.801535
vt 0.584797 0.624072
vt 0.548128 0.595214
vt 0.584797 0.417126
vt 0.204081 0.439610
vt 0.224637 0.338664
vt 0.224637 0.495269
vt 0.799481 0.417126
vt 0.799481 0.532193
vt 0.757154 0.511046
vt 0.083486 0.757611
vt 0.126657 0.670233
vt 0.126657 0.785300
vt 0.383797 0.529776
vt 0.436236 0.454866
vt 0.436236 0.584102
vt 0.222643 0.628606
vt 0.154059 0.530212
vt 0.222643 0.524289
vt 0.335142 0.605962
vt 0.381569 0.454866
vt 0.381569 0.610644
vt 0.001114 0.102020
vt 0.076486 0.001114
vt 0.076486 0.238349
vt 0.689448 0.417126
vt 0.689448 0.654361
vt 0.667055 0.505782
vt 0.833949 0.105318
vt 0.863132 0.001114
vt 0.863132 0.142562
vt 0.636134 0.001114
vt 0.636134 0.151371
vt 0.593035 0.095463
vt 0.001114 0.384572
vt 0.051769 0.240577
vt 0.051769 0.425196
vt 0.738620 0.207952
vt 0.738620 0.392572
vt 0.710477 0.330716
vt 0.691676 0.689275
vt 0.734168 0.612342
vt 0.734168 0.738162
vt 0.214696 0.336437
vt 0.154059 0.300031
vt 0.214696 0.159946
vt 0.451199 0.504187
vt 0.507075 0.393270
vt 0.507075 0.542865
vt 0.521388 0.720976
vt 0.443664 0.691410
vt 0.521388 0.650383
vt 0.509303 0.460244
vt 0.544298 0.393270
vt 0.544298 0.581099
vt 0.001114 0.523086
vt 0.060428 0.427424
vt 0.060428 0.561611
vt 0.444047 0.207952
vt 0.444047 0.372635
vt 0.410807 0.284177
vt 0.001114 0.732721
vt 0.062455 0.729037
vt 0.062455 0.804603
vt 0.445049 0.001114
vt 0.445049 0.201105
vt 0.399005 0.188219
vt 0.725906 0.099916
vt 0.751633 0.001114
vt 0.751633 0.201105
vt 0.443664 0.630937
vt 0.544298 0.583327
vt 0.544298 0.648156
vt 0.843927 0.906666
vt 0.887907 0.879211
vt 0.887907 0.950563
vt 0.839913 0.474655
vt 0.882120 0.417126
vt 0.882120 0.516029
vt 0.977157 0.251752
vt 0.977157 0.302743
vt 0.925571 0.287071
vt 0.988083 0.083390
vt 0.958310 0.053443
vt 0.988083 0.001114
vt 0.979207 0.839246
vt 0.950813 0.786157
vt 0.979207 0.751209
vt 0.201199 0.786316
vt 0.141781 0.740384
vt 0.201199 0.705194
vt 0.850733 0.558566
vt 0.894621 0.520773
vt 0.894621 0.610115
vt 0.836128 0.148766
vt 0.836128 0.201105
vt 0.753860 0.178088
vt 0.932730 0.484016
vt 0.981001 0.446602
vt 0.981001 0.498863
vt 0.930502 0.516029
vt 0.884348 0.454078
vt 0.930502 0.446602
vt 0.582080 0.935291
vt 0.632940 0.888033
vt 0.632940 0.949551
vt 0.258965 0.899496
vt 0.258965 0.960287
vt 0.210258 0.900324
vt 0.966383 0.178192
vt 0.966383 0.249524
vt 0.925571 0.204469
vt 0.976592 0.673371
vt 0.976592 0.734889
vt 0.932266 0.701056
vt 0.907640 0.087034
vt 0.865360 0.036781
vt 0.907640 0.001114
vt 0.777587 0.602440
vt 0.848505 0.553934
vt 0.848505 0.610115
vt 0.925571 0.121454
vt 0.959479 0.089262
vt 0.959479 0.175964
vt 0.273082 0.792507
vt 0.325421 0.726224
vt 0.325421 0.812926
vt 0.955341 0.305497
vt 0.955341 0.383236
vt 0.917116 0.342554
vt 0.141781 0.962075
vt 0.206316 0.923166
vt 0.206316 0.965339
vt 0.917116 0.406440
vt 0.966775 0.385464
vt 0.966775 0.440830
vt 0.968611 0.201661
vt 0.997261 0.178192
vt 0.997261 0.248410
vt 0.626947 0.368730
vt 0.673763 0.346146
vt 0.673763 0.414414
vt 0.632940 0.796697
vt 0.632940 0.885805
vt 0.587025 0.861442
vt 0.811853 0.937253
vt 0.811853 0.987755
vt 0.777587 0.963171
vt 0.775359 0.821912
vt 0.775359 0.878961
vt 0.709198 0.838740
vt 0.390674 0.895682
vt 0.335142 0.853419
vt 0.390674 0.829998
vt 0.906019 0.174191
vt 0.865360 0.135253
vt 0.906019 0.089262
vt 0.636747 0.720448
vt 0.687493 0.690743
vt 0.687493 0.787045
vt 0.948585 0.755519
vt 0.948585 0.839247
vt 0.912597 0.809099
vt 0.998886 0.589885
vt 0.972189 0.564217
vt 0.998886 0.520773
vt 0.636747 0.931844
vt 0.700104 0.923282
vt 0.700104 0.966247
vt 0.947763 0.902679
vt 0.977513 0.841474
vt 0.977513 0.930576
vt 0.956082 0.066929
vt 0.909867 0.034428
vt 0.956082 0.001114
vt 0.151272 0.552344
vt 0.151272 0.614862
vt 0.129632 0.591885
vt 0.222643 0.702967
vt 0.141781 0.646019
vt 0.222643 0.630834
vt 0.390674 0.952086
vt 0.333144 0.932340
vt 0.390674 0.897910
vt 0.116132 0.976915
vt 0.066139 0.956040
vt 0.116132 0.922253
vt 0.553351 0.926641
vt 0.576592 0.905285
vt 0.576592 0.972986
vt 0.715600 0.203522
vt 0.638361 0.161274
vt 0.715600 0.136477
vt 0.835558 0.935025
vt 0.777587 0.918286
vt 0.835558 0.878553
vt 0.206232 0.920938
vt 0.141781 0.892914
vt 0.206232 0.868116
vt 0.079316 0.563838
vt 0.079316 0.647668
vt 0.001114 0.626336
vt 0.021503 0.566895
vt 0.056339 0.936075
vt 0.056339 0.973952
vt 0.001114 0.962153
vt 0.709198 0.891243
vt 0.773584 0.881188
vt 0.773584 0.929903
vt 0.933653 0.520773
vt 0.933653 0.606201
vt 0.896849 0.574553
vt 0.270854 0.897269
vt 0.210258 0.865314
vt 0.270854 0.839351
vt 0.315305 0.973523
vt 0.273082 0.939997
vt 0.315305 0.905017
vt 0.701667 0.921055
vt 0.636747 0.878633
vt 0.701667 0.868716
vt 0.496163 0.840899
vt 0.496163 0.906823
vt 0.443664 0.897978
vt 0.930038 0.737988
vt 0.879937 0.713507
vt 0.930038 0.673371
vt 0.507363 0.839261
vt 0.562705 0.837644
vt 0.562705 0.903058
vt 0.490307 0.969456
vt 0.443664 0.939720
vt 0.490307 0.909051
vt 0.887052 0.305497
vt 0.887052 0.398578
vt 0.844667 0.370665
vt 0.404887 0.762099
vt 0.335142 0.700457
vt 0.404887 0.692314
vt 0.935881 0.558379
vt 0.969961 0.520773
vt 0.969961 0.600147
vt 0.404600 0.827770
vt 0.335142 0.798541
vt 0.404600 0.764327
vt 0.412850 0.690086
vt 0.335142 0.646478
vt 0.412850 0.612872
vt 0.692301 0.789273
vt 0.692301 0.866488
vt 0.636747 0.802248
vt 0.658816 0.688515
vt 0.613812 0.687000
vt 0.587025 0.654356
vt 0.658816 0.601178
vt 0.912597 0.979266
vt 0.956993 0.933946
vt 0.956993 0.982701
vt 0.001114 0.864176
vt 0.063399 0.806830
vt 0.063399 0.872515
vt 0.507363 0.948335
vt 0.551123 0.905285
vt 0.551123 0.969830
vt 0.396689 0.904468
vt 0.392901 0.840359
vt 0.432347 0.829998
vt 0.432347 0.913827
vt 0.936232 0.671143
vt 0.879937 0.670665
vt 0.936232 0.612342
vt 0.125783 0.920025
vt 0.066139 0.911372
vt 0.125783 0.862131
vt 0.961707 0.126844
vt 0.989843 0.089262
vt 0.989843 0.161357
vt 0.198348 0.865888
vt 0.141781 0.826181
vt 0.198348 0.788544
vt 0.775359 0.741919
vt 0.775359 0.819684
vt 0.716978 0.814005
vt 0.721085 0.748426
vt 0.316629 0.723996
vt 0.229354 0.683287
vt 0.316629 0.665340
vt 0.773379 0.968997
vt 0.709198 0.946702
vt 0.773379 0.932131
vt 0.001114 0.878863
vt 0.057935 0.874743
vt 0.057935 0.933847
vt 0.126657 0.859903
vt 0.066139 0.838414
vt 0.126657 0.787528
vt 0.569693 0.763041
vt 0.569693 0.835417
vt 0.507363 0.790355
vt 0.008014 0.659902
vt 0.072955 0.649896
vt 0.072955 0.726809
vt 0.001114 0.720334
vt 0.957568 0.361410
vt 0.988525 0.305471
vt 0.988525 0.383236
vt 0.977951 0.671143
vt 0.938460 0.630738
vt 0.977951 0.609006
vn -0.7885 0.6150 0.0066
vn -0.0991 -0.9871 0.1254
vn 0.9410 -0.3042 -0.1481
vn 0.0784 0.9935 -0.0824
vn -0.7637 -0.4485 0.4643
vn 0.6965 -0.6877 -0.2047
vn -0.7771 -0.3733 0.5067
vn 0.5781 0.1578 -0.8006
vn -0.1105 0.9806 -0.1619
vn -0.5461 0.6098 0.5744
vn 0.6195 -0.5461 -0.5639
vn -0.1117 -0.3022 0.9467
vn 0.0555 -0.8382 0.5426
vn 0.2580 -0.9447 -0.2024
vn 0.6920 -0.4352 0.5760
vn -0.2555 0.0215 -0.9666
vn 0.8772 0.4193 -0.2340
vn -0.4024 -0.3934 -0.8266
vn 0.6996 -0.4449 0.5592
vn -0.1697 -0.8972 -0.4077
vn 0.2985 0.9163 0.2669
vn 0.4952 -0.7373 0.4595
vn 0.6378 0.1177 0.7612
vn -0.8953 0.3101 -0.3199
vn -0.5470 0.8123 -0.2023
vn 0.3238 -0.9454 0.0382
vn 0.2950 0.9177 0.2662
vn -0.9094 -0.3145 -0.2723
vn 0.3931 -0.9195 0.0036
vn 0.8459 0.5316 -0.0434
vn -0.7811 -0.2546 0.5702
vn 0.2926 -0.9467 -0.1345
vn -0.7690 -0.3033 0.5628
vn 0.7113 -0.5550 -0.4313
vn -0.1803 -0.8876 0.4238
vn 0.3028 0.8119 -0.4992
vn 0.0892 -0.7042 0.7043
vn 0.2561 -0.9643 -0.0681
vn -0.2778 0.9310 -0.2368
vn 0.3082 0.7246 0.6164
vn 0.7440 -0.4693 0.4756
vn 0.7133 0.6412 0.2830
vn 0.5249 0.8068 0.2712
vn -0.9864 -0.1330 -0.0968
vn -0.8948 -0.3983 -0.2017
vn -0.0235 0.9997 -0.0054
vn -0.9930 -0.0053 -0.1182
vn 0.0067 -0.9915 0.1301
vn -0.6972 0.6485 0.3056
vn -0.5511 0.2074 0.8082
vn 0.5910 0.0307 -0.8061
vn 0.0526 0.8362 -0.5458
vn -0.3420 0.7230 0.6002
vn -0.1040 -0.6164 0.7805
vn 0.2371 -0.9345 -0.2654
vn 0.1301 -0.4652 -0.8756
vn -0.1227 0.9884 0.0895
vn 0.0525 0.2371 0.9701
vn -0.2602 0.0689 -0.9631
vn -0.4120 0.8597 -0.3021
vn -0.0113 -0.9631 -0.2689
vn -0.8463 0.4544 -0.2780
vn 0.7810 0.5056 0.3667
vn 0.9054 -0.3974 0.1492
vn 0.7589 0.6512 0.0011
vn -0.0443 0.9979 -0.0482
vn -0.7177 -0.6963 0.0128
vn -0.7397 0.6191 0.2636
vn -0.2746 0.9589 0.0713
vn 0.3744 -0.9052 -0.2009
vn 0.6456 0.0933 -0.7580
vn 0.3583 0.5179 -0.7768
vn -0.2943 0.4981 0.8157
vn -0.2636 0.8244 0.5008
vn 0.0989 -0.6971 -0.7101
vn 0.0843 -0.3199 0.9437
vn -0.1078 0.9486 0.2975
vn -0.2076 0.7232 -0.6587
vn -0.4272 -0.0779 -0.9008
vn 0.5333 0.0291 0.8454
vn -0.6685 -0.0610 -0.7412
vn -0.4567 -0.4537 -0.7652
vn 0.6880 -0.6279 0.3640
vn -0.1304 -0.9715 -0.1980
vn 0.0230 -0.9991 -0.0366
vn 0.0867 0.7311 -0.6768
vn 0.0789 0.3942 -0.9156
vn 0.0309 0.9881 -0.1507
vn 0.3314 0.2854 -0.8993
vn 0.6515 -0.1101 -0.7506
vn 0.8236 -0.3391 -0.4546
vn 0.6245 0.7000 -0.3465
vn 0.9327 0.3415 -0.1156
vn 0.2534 -0.9672 -0.0190
vn 0.8365 -0.4768 0.2701
vn 0.7374 -0.6535 0.1712
vn 0.8882 -0.3865 0.2483
vn 0.9194 -0.0245 0.3926
vn 0.5062 -0.8225 0.2595
vn 0.7524 0.1930 0.6298
vn 0.7775 0.1247 0.6164
vn 0.4853 -0.4567 0.7456
vn 0.4611 -0.3836 0.8001
vn 0.2198 0.6429 0.7338
vn -0.0183 -0.8688 0.4948
vn 0.1933 0.1197 0.9738
vn 0.0057 0.9252 0.3793
vn -0.0606 -0.3677 0.9280
vn -0.3042 0.0973 0.9476
vn 0.0433 -0.9945 0.0950
vn -0.2583 -0.6135 0.7463
vn -0.4829 0.7060 0.5181
vn -0.7772 -0.3402 0.5293
vn -0.8375 -0.5059 -0.2066
vn -0.7743 -0.6306 -0.0517
vn -0.2959 0.9551 -0.0134
vn -0.2792 -0.9583 -0.0602
vn -0.8026 -0.3624 -0.4737
vn -0.4092 0.7585 -0.5072
vn 0.0444 0.9765 -0.2109
vn 0.1171 0.3401 -0.9331
vn 0.3521 -0.4239 -0.8345
vn 0.3034 -0.7126 -0.6325
vn 0.4233 0.7920 -0.4399
vn 0.6571 -0.1748 -0.7332
vn 0.4902 -0.7724 -0.4038
vn 0.6839 -0.6468 -0.3376
vn -0.9555 0.2837 0.0806
vn 0.2653 -0.9532 -0.1448
vn 0.9580 -0.1891 -0.2157
vn 0.9721 0.2193 -0.0828
vn 0.4659 0.8767 0.1196
vn 0.2432 0.9622 0.1227
vn 0.7108 0.5694 0.4130
vn 0.6400 0.6488 0.4116
vn 0.3433 -0.7784 0.5256
vn 0.2801 -0.2981 0.9125
vn 0.3636 0.3206 0.8747
vn 0.0210 0.7136 0.7002
vn -0.0540 0.7794 0.6242
vn -0.1892 0.1733 0.9665
vn -0.1768 -0.8204 0.5438
vn -0.5780 0.1005 0.8098
vn -0.7176 -0.3063 0.6255
vn 0.7544 0.5264 -0.3921
vn -0.3663 -0.8653 0.3421
vn -0.6899 0.3423 0.6379
vn -0.7314 -0.6419 0.2301
vn -0.8855 0.3091 -0.3470
vn -0.9874 -0.0606 0.1463
vn -0.5864 0.7983 0.1371
vn -0.2864 -0.9565 -0.0548
vn -0.4509 0.8918 -0.0376
vn -0.1884 -0.7858 -0.5891
vn -0.7982 -0.4635 -0.3848
vn -0.4878 0.7915 -0.3682
vn -0.4989 0.4339 -0.7502
vn -0.6309 0.2884 -0.7203
vn -0.5856 -0.1056 -0.8037
vn -0.1437 -0.2701 -0.9521
vn -0.1600 -0.9128 -0.3757
vn -0.0676 0.8273 -0.5577
s off
f 5/1/1 40/2/1 42/3/1
f 3/4/2 6/5/2 4/6/2
f 4/7/3 7/8/3 43/9/3
f 8/10/4 5/11/4 1/12/4
f 9/13/5 3/14/5 2/15/5
f 6/16/6 7/17/6 4/18/6
f 9/19/7 10/20/7 3/21/7
f 13/22/8 8/23/8 7/24/8
f 8/25/9 11/26/9 5/27/9
f 11/28/10 14/29/10 5/30/10
f 12/31/11 7/32/11 6/33/11
f 9/34/12 15/35/12 10/36/12
f 10/37/13 16/38/13 6/39/13
f 16/40/14 12/41/14 6/42/14
f 19/43/15 16/44/15 15/45/15
f 20/46/16 11/47/16 13/48/16
f 8/49/17 1/50/17 43/51/17 7/52/17
f 22/53/18 20/54/18 17/55/18
f 21/56/19 19/57/19 15/58/19
f 24/59/20 22/60/20 17/61/20
f 23/62/21 15/63/21 18/64/21
f 19/65/22 24/66/22 16/67/22
f 23/68/23 21/69/23 15/70/23
f 22/71/24 25/72/24 20/73/24
f 26/74/25 18/75/25 20/76/25
f 27/77/26 24/78/26 19/79/26
f 26/80/27 23/81/27 18/82/27
f 24/83/28 25/84/28 22/85/28
f 27/86/29 30/87/29 24/88/29
f 29/89/30 28/90/30 23/91/30
f 32/92/31 31/93/31 25/94/31
f 27/95/32 33/96/32 30/97/32
f 32/98/33 25/99/33 30/100/33
f 35/101/34 33/102/34 27/103/34
f 33/104/35 32/105/35 30/106/35
f 29/107/36 35/108/36 28/109/36
f 38/110/37 32/111/37 33/112/37
f 39/113/38 38/114/38 33/115/38
f 42/116/39 40/117/39 34/118/39
f 41/119/40 42/120/40 36/121/40
f 43/122/41 41/123/41 38/124/41
f 43/125/42 1/126/42 41/127/42
f 41/128/43 1/129/43 42/130/43
f 2/131/44 39/132/44 40/133/44
f 2/134/45 3/135/45 39/136/45
f 1/137/46 5/138/46 42/139/46
f 40/140/47 5/141/47 2/142/47
f 3/143/48 10/144/48 6/145/48
f 5/146/49 9/147/49 2/148/49
f 5/149/50 14/150/50 9/151/50
f 12/152/51 13/153/51 7/154/51
f 13/155/52 11/156/52 8/157/52
f 14/158/53 15/159/53 9/160/53
f 15/161/54 16/162/54 10/163/54
f 16/164/55 17/165/55 12/166/55
f 12/167/56 17/168/56 13/169/56
f 11/170/57 18/171/57 14/172/57
f 18/173/58 15/174/58 14/175/58
f 17/176/59 20/177/59 13/178/59
f 11/179/60 20/180/60 18/181/60
f 16/182/61 24/183/61 17/184/61
f 25/185/62 26/186/62 20/187/62
f 21/188/63 27/189/63 19/190/63
f 21/191/64 28/192/64 27/193/64
f 23/194/65 28/195/65 21/196/65
f 26/197/66 29/198/66 23/199/66
f 24/200/67 30/201/67 25/202/67
f 25/203/68 31/204/68 26/205/68
f 31/206/69 34/207/69 26/208/69
f 26/209/70 34/210/70 29/211/70
f 28/212/71 35/213/71 27/214/71
f 29/215/72 34/216/72 35/217/72
f 32/218/73 36/219/73 31/220/73
f 31/221/74 36/222/74 34/223/74
f 35/224/75 37/225/75 33/226/75
f 38/227/76 36/228/76 32/229/76
f 36/230/77 42/231/77 34/232/77
f 34/233/78 37/234/78 35/235/78
f 37/236/79 39/237/79 33/238/79
f 38/239/80 41/240/80 36/241/80
f 34/242/81 40/243/81 37/244/81
f 40/245/82 39/246/82 37/247/82
f 38/248/83 4/249/83 43/250/83
f 39/251/84 4/252/84 38/253/84
f 39/254/85 3/255/85 4/256/85
f 50/257/86 48/258/86 44/259/86
f 44/260/87 48/261/87 45/262/87
f 85/263/88 72/264/88 55/265/88
f 48/266/89 51/267/89 49/268/89
f 49/269/90 51/270/90 54/271/90
f 54/272/91 56/273/91 52/274/91
f 55/275/92 60/276/92 48/277/92
f 60/278/93 57/279/93 54/280/93
f 47/281/94 59/282/94 66/283/94
f 56/284/95 61/285/95 62/286/95
f 56/287/96 62/288/96 59/289/96
f 58/290/97 61/291/97 56/292/97
f 57/293/98 61/294/98 58/295/98
f 59/296/99 62/297/99 66/298/99
f 57/299/100 63/300/100 65/301/100
f 57/302/101 65/303/101 61/304/101
f 62/305/102 61/306/102 69/307/102
f 65/308/103 69/309/103 61/310/103
f 64/311/104 67/312/104 63/313/104
f 69/314/105 80/315/105 66/316/105
f 67/317/106 68/318/106 65/319/106
f 72/320/107 74/321/107 64/322/107
f 68/323/108 71/324/108 69/325/108
f 70/326/109 71/327/109 68/328/109
f 47/329/110 66/330/110 80/331/110
f 71/332/111 73/333/111 69/334/111
f 70/335/112 74/336/112 75/337/112
f 76/338/113 77/339/113 73/340/113
f 77/341/114 78/342/114 84/343/114
f 77/344/115 84/345/115 79/346/115
f 74/347/116 72/348/116 85/349/116
f 84/350/117 47/351/117 80/352/117
f 83/353/118 86/354/118 78/355/118
f 85/356/119 44/357/119 82/358/119
f 85/359/120 55/360/120 50/361/120
f 45/362/121 48/363/121 49/364/121
f 46/365/122 49/366/122 52/367/122
f 46/368/123 52/369/123 53/370/123
f 50/371/124 55/372/124 48/373/124
f 49/374/125 54/375/125 52/376/125
f 53/377/126 52/378/126 59/379/126
f 59/380/127 52/381/127 56/382/127
f 81/383/128 78/384/128 76/385/128 75/386/128
f 47/387/129 53/388/129 59/389/129
f 54/390/130 58/391/130 56/392/130
f 54/393/131 57/394/131 58/395/131
f 55/396/132 64/397/132 60/398/132
f 55/399/133 72/400/133 64/401/133
f 60/402/134 63/403/134 57/404/134
f 60/405/135 64/406/135 63/407/135
f 66/408/136 62/409/136 69/410/136
f 65/411/137 68/412/137 69/413/137
f 65/414/138 63/415/138 67/416/138
f 64/417/139 70/418/139 67/419/139
f 70/420/140 64/421/140 74/422/140
f 67/423/141 70/424/141 68/425/141
f 80/426/142 69/427/142 73/428/142
f 71/429/143 70/430/143 76/431/143
f 71/432/144 76/433/144 73/434/144
f 54/435/145 51/436/145 48/437/145 60/438/145
f 80/439/146 73/440/146 79/441/146
f 76/442/147 70/443/147 75/444/147
f 73/445/148 77/446/148 79/447/148
f 82/448/149 83/449/149 78/450/149 81/451/149
f 77/452/150 76/453/150 78/454/150
f 75/455/151 74/456/151 81/457/151
f 79/458/152 84/459/152 80/460/152
f 74/461/153 85/462/153 81/463/153
f 53/464/154 84/465/154 86/466/154 46/467/154
f 84/468/155 78/469/155 86/470/155
f 81/471/156 85/472/156 82/473/156
f 82/474/157 44/475/157 45/476/157
f 83/477/158 82/478/158 45/479/158
f 83/480/159 45/481/159 86/482/159
f 46/483/160 86/484/160 45/485/160 49/486/160
f 47/487/161 84/488/161 53/489/161
f 44/490/162 85/491/162 50/492/162
