# Blender v2.82 (sub 7) OBJ File: ''
# www.blender.org
mtllib InvinciblePotion.mtl
o Cylinder
v 0.447834 1.096228 -0.202404
v 0.146806 1.918205 -0.413956
v 0.107994 1.096228 0.426673
v 0.454816 1.918205 0.147985
v -0.367362 1.096228 0.212558
v -0.173388 1.918205 0.398959
v -0.411506 1.918205 -0.193295
v -0.288556 1.096228 -0.342482
v 0.613575 0.613575 -1.000000
v 0.613575 1.000000 -0.613575
v 1.000000 0.613575 -0.613575
v 0.444089 -1.342789 -0.444089
v 0.444089 -0.442181 -0.723772
v 0.723772 -0.442181 -0.444089
v 1.000000 0.613575 0.613575
v 0.613575 1.000000 0.613575
v 0.613575 0.613575 1.000000
v 0.723772 -0.442181 0.444089
v 0.444089 -0.442181 0.723772
v 0.444089 -1.342789 0.444089
v -0.613575 0.613575 -1.000000
v -1.000000 0.613575 -0.613575
v -0.613575 1.000000 -0.613575
v -0.723772 -0.442181 -0.444089
v -0.444089 -0.442181 -0.723772
v -0.444089 -1.342789 -0.444089
v -1.000000 0.613575 0.613575
v -0.613575 0.613575 1.000000
v -0.613575 1.000000 0.613575
v -0.444089 -1.342789 0.444089
v -0.444089 -0.442181 0.723772
v -0.723772 -0.442181 0.444089
v 0.356328 1.255224 -0.356328
v 0.625410 0.986141 -0.356328
v 0.356328 0.986141 -0.625410
v 0.625410 0.986141 0.356328
v 0.356328 1.255224 0.356328
v 0.356328 0.986141 0.625410
v -0.625410 0.986141 -0.356328
v -0.356328 1.255224 -0.356328
v -0.356328 0.986141 -0.625410
v -0.625410 0.986141 0.356328
v -0.356328 0.986141 0.625410
v -0.356328 1.255224 0.356328
vt 0.252962 0.023771
vt 0.153167 0.161757
vt 0.152144 0.162863
vt 0.987261 0.003105
vt 0.987261 0.129386
vt 0.868517 0.114910
vt 0.868103 0.002844
vt 0.276215 0.293926
vt 0.154161 0.162959
vt 0.000518 0.291115
vt 0.153071 0.163937
vt 0.020191 0.007485
vt 0.685434 0.460744
vt 0.851233 0.460744
vt 0.851233 0.626543
vt 0.685434 0.626544
vt 0.508357 0.262270
vt 0.712073 0.230631
vt 0.712073 0.459708
vt 0.508357 0.428069
vt 0.507321 0.428069
vt 0.303605 0.459708
vt 0.303605 0.230631
vt 0.507321 0.262270
vt 0.303605 0.229595
vt 0.303605 0.000518
vt 0.532681 0.000518
vt 0.532681 0.229595
vt 0.000518 0.349854
vt 0.204234 0.318215
vt 0.204234 0.547292
vt 0.000518 0.515653
vt 0.826818 0.897467
vt 0.826818 0.999482
vt 0.738470 0.948474
vt 0.277464 0.494255
vt 0.205270 0.333699
vt 0.277464 0.318215
vt 0.916201 0.897467
vt 0.916201 0.999482
vt 0.827854 0.948474
vt 0.349720 0.881492
vt 0.349720 0.955328
vt 0.177595 0.918410
vt 0.730775 0.897467
vt 0.730775 0.999482
vt 0.642428 0.948474
vt 0.475730 0.690857
vt 0.475730 0.764693
vt 0.303605 0.727775
vt 0.892146 0.678587
vt 0.980493 0.627580
vt 0.980493 0.729595
vt 0.000518 0.886152
vt 0.172644 0.849234
vt 0.172644 0.923069
vt 0.508357 0.626544
vt 0.508357 0.460744
vt 0.684397 0.460744
vt 0.684397 0.626543
vt 0.533718 0.166317
vt 0.533718 0.000518
vt 0.709758 0.000518
vt 0.709758 0.166317
vt 0.918785 0.435697
vt 0.713109 0.421608
vt 0.713109 0.347772
vt 0.918785 0.333682
vt 0.944146 0.882341
vt 0.738470 0.896430
vt 0.738470 0.794416
vt 0.944146 0.808505
vt 0.918785 0.332646
vt 0.713109 0.318556
vt 0.713109 0.244721
vt 0.918785 0.230631
vt 0.891110 0.729595
vt 0.685434 0.715505
vt 0.685434 0.641670
vt 0.891110 0.627580
vt 0.279609 0.548328
vt 0.279610 0.777405
vt 0.177595 0.777405
vt 0.177595 0.548328
vt 0.812809 0.000518
vt 0.812809 0.229595
vt 0.710794 0.229595
vt 0.710794 0.000518
vt 0.508357 0.793379
vt 0.508357 0.627580
vt 0.684397 0.627580
vt 0.684397 0.793379
vt 0.737434 0.896430
vt 0.508357 0.896430
vt 0.508357 0.794416
vt 0.737434 0.794416
vt 0.406671 0.880456
vt 0.177595 0.880456
vt 0.177595 0.778441
vt 0.406671 0.778441
vt 0.176558 0.548328
vt 0.176558 0.714127
vt 0.000518 0.714127
vt 0.000518 0.548328
vt 0.303605 0.492383
vt 0.507321 0.460744
vt 0.507321 0.689821
vt 0.303605 0.658182
vt 0.981341 0.302705
vt 0.981341 0.373741
vt 0.919822 0.338223
vt 0.978758 0.968504
vt 0.917238 0.932985
vt 0.978758 0.897467
vt 0.981341 0.230631
vt 0.981341 0.301668
vt 0.919822 0.266150
vt 0.981341 0.445815
vt 0.919822 0.410296
vt 0.981341 0.374778
vt 0.508357 0.897467
vt 0.641391 0.897467
vt 0.641391 0.968504
vt 0.508357 0.968504
vt 0.813846 0.128097
vt 0.946880 0.128097
vt 0.946880 0.199134
vt 0.813846 0.199134
vt 0.923306 0.460744
vt 0.923306 0.593778
vt 0.852269 0.593778
vt 0.852269 0.460744
vt 0.478745 0.778441
vt 0.478745 0.911475
vt 0.407708 0.911475
vt 0.407708 0.778441
vt 0.000518 0.848198
vt 0.000518 0.715164
vt 0.133552 0.715164
vt 0.133552 0.848198
vn 0.1838 -0.1813 -0.9661
vn 0.0000 1.0000 0.0000
vn 0.8610 -0.2056 0.4651
vn -0.4082 -0.1092 0.9063
vn -0.9827 -0.1217 -0.1395
vn 0.8603 0.1937 -0.4715
vn 0.3664 0.1564 0.9172
vn -0.9196 0.1332 0.3697
vn 0.0000 -1.0000 -0.0000
vn -0.3652 0.1131 -0.9240
vn -0.9674 -0.2531 0.0000
vn 0.0000 -0.2531 0.9674
vn 0.9674 -0.2531 0.0000
vn 0.5774 0.5774 -0.5774
vn 0.6907 -0.2145 -0.6907
vn 0.5774 0.5774 0.5774
vn 0.6907 -0.2145 0.6907
vn -0.5774 0.5774 -0.5774
vn -0.6907 -0.2145 -0.6907
vn -0.5774 0.5774 0.5774
vn -0.6907 -0.2145 0.6907
vn -0.9550 -0.2966 0.0000
vn 0.0000 -0.2966 -0.9550
vn 0.6776 -0.2860 -0.6776
vn -0.6776 -0.2860 0.6776
vn 0.6776 -0.2860 0.6776
vn -0.6776 -0.2860 -0.6776
vn 0.0000 0.7071 0.7071
vn 0.7071 0.7071 0.0000
vn 0.0000 -0.2966 0.9550
vn -0.7071 0.7071 0.0000
vn 0.0000 0.7071 -0.7071
vn 0.9550 -0.2966 0.0000
vn 0.0000 -0.2531 -0.9674
usemtl Material
s off
f 2/1/1 1/2/1 8/3/1
f 6/4/2 4/5/2 2/6/2 7/7/2
f 4/8/3 3/9/3 1/2/3
f 6/10/4 5/11/4 3/9/4
f 7/12/5 8/3/5 5/11/5
f 2/1/6 4/8/6 1/2/6
f 4/8/7 6/10/7 3/9/7
f 6/10/8 7/12/8 5/11/8
f 3/9/9 5/11/9 8/3/9 1/2/9
f 7/12/10 2/1/10 8/3/10
f 26/13/9 12/14/9 20/15/9 30/16/9
f 32/17/11 27/18/11 22/19/11 24/20/11
f 19/21/12 17/22/12 28/23/12 31/24/12
f 10/25/2 23/26/2 29/27/2 16/28/2
f 14/29/13 11/30/13 15/31/13 18/32/13
f 9/33/14 10/34/14 11/35/14
f 12/36/15 13/37/15 14/38/15
f 15/39/16 16/40/16 17/41/16
f 18/42/17 19/43/17 20/44/17
f 21/45/18 22/46/18 23/47/18
f 24/48/19 25/49/19 26/50/19
f 27/51/20 28/52/20 29/53/20
f 30/54/21 31/55/21 32/56/21
f 26/57/22 30/58/22 32/59/22 24/60/22
f 12/61/23 26/62/23 25/63/23 13/64/23
f 11/65/24 14/66/24 13/67/24 9/68/24
f 31/69/25 28/70/25 27/71/25 32/72/25
f 17/73/26 19/74/26 18/75/26 15/76/26
f 21/77/27 25/78/27 24/79/27 22/80/27
f 16/81/28 29/82/28 28/83/28 17/84/28
f 10/85/29 16/86/29 15/87/29 11/88/29
f 30/89/30 20/90/30 19/91/30 31/92/30
f 29/93/31 23/94/31 22/95/31 27/96/31
f 23/97/32 10/98/32 9/99/32 21/100/32
f 20/101/33 12/102/33 14/103/33 18/104/33
f 25/105/34 21/106/34 9/107/34 13/108/34
f 33/109/14 34/110/14 35/111/14
f 36/112/16 37/113/16 38/114/16
f 39/115/18 40/116/18 41/117/18
f 42/118/20 43/119/20 44/120/20
f 33/121/29 37/122/29 36/123/29 34/124/29
f 37/125/28 44/126/28 43/127/28 38/128/28
f 40/129/32 33/130/32 35/131/32 41/132/32
f 44/133/31 40/134/31 39/135/31 42/136/31
f 33/137/2 40/138/2 44/139/2 37/140/2
