# Blender v2.82 (sub 7) OBJ File: ''
# www.blender.org
o Cube
v 0.123888 0.813965 0.027745
v 0.245095 0.164063 0.672001
v 0.546902 -0.613590 0.214840
v 0.428232 -0.267935 0.481968
v -0.150712 0.842361 -0.054216
v -0.453469 0.023372 0.123300
v -0.411553 -0.883582 0.421068
v -0.253634 -0.831330 0.697437
v -0.368097 -0.291668 0.527925
v -0.057902 -0.921991 0.082724
v 0.029071 0.073924 -0.508388
v -0.377095 0.053707 0.340766
v -0.011597 0.265553 0.891945
v 0.136865 0.735188 -0.436264
v -0.140592 0.137633 -0.612318
v 0.259558 -0.826462 -0.208881
v 0.106934 -0.107970 0.878593
v -0.004035 0.938231 -0.064521
v -0.097574 0.910342 0.257063
v 0.440691 0.112109 -0.032475
v -0.442778 -0.298625 -0.252324
v -0.351986 0.428751 0.341497
v -0.477302 -0.493567 0.416251
v -0.463850 -0.540966 0.108347
v 0.046806 -0.415553 -0.415706
v -0.149553 -0.584734 -0.353331
v 0.392362 0.391702 -0.372782
v 0.589585 -0.087181 -0.052808
v -0.217823 -0.152045 -0.574956
v -0.215409 0.775893 0.519850
v 0.002942 -1.047788 0.354517
v -0.091032 -0.441900 0.880804
v -0.350548 0.233011 -0.125051
v 0.278556 -0.924647 0.143123
v 0.563552 -0.691628 -0.042417
v 0.619525 -0.241012 -0.199987
v 0.099094 -0.039940 -0.399416
vt 0.302494 0.601252
vt 0.246543 0.635846
vt 0.246629 0.563178
vt 0.305347 0.639137
vt 0.224738 0.693368
vt 0.252616 0.660820
vt 0.538165 0.159532
vt 0.472907 0.213415
vt 0.504765 0.097642
vt 0.523129 0.803750
vt 0.525890 0.876776
vt 0.483028 0.865448
vt 0.465437 0.939107
vt 0.464858 0.896213
vt 0.749382 0.616039
vt 0.774225 0.616868
vt 0.763644 0.657483
vt 0.567850 0.443811
vt 0.557052 0.479007
vt 0.538512 0.489189
vt 0.367420 0.580384
vt 0.266099 0.538050
vt 0.299729 0.521658
vt 0.449716 0.713746
vt 0.418631 0.675931
vt 0.459084 0.665980
vt 0.577957 0.319093
vt 0.576571 0.293525
vt 0.607161 0.320546
vt 0.461491 0.250035
vt 0.389471 0.193786
vt 0.436508 0.174486
vt 0.577750 0.075299
vt 0.564850 0.030123
vt 0.600414 0.066536
vt 0.541298 0.052826
vt 0.541099 0.083333
vt 0.207662 0.667881
vt 0.172256 0.632844
vt 0.156137 0.588708
vt 0.132851 0.627967
vt 0.437481 0.575595
vt 0.488477 0.430926
vt 0.525445 0.540041
vt 0.511508 0.392082
vt 0.513477 0.956482
vt 0.517146 0.995954
vt 0.466090 0.999367
vt 0.462777 0.798209
vt 0.467702 0.607403
vt 0.559065 0.626449
vt 0.523142 0.319365
vt 0.468287 0.316278
vt 0.724593 0.629929
vt 0.674926 0.581299
vt 0.290843 0.710011
vt 0.228185 0.723713
vt 0.724227 0.563349
vt 0.763808 0.508813
vt 0.706533 0.548462
vt 0.360207 0.620055
vt 0.385136 0.646854
vt 0.372127 0.583148
vt 0.462178 0.422125
vt 0.460783 0.334460
vt 0.176689 0.672794
vt 0.214731 0.500002
vt 0.721618 0.731624
vt 0.779501 0.694938
vt 0.754848 0.744117
vt 0.744012 0.746569
vt 0.643481 0.666249
vt 0.266181 0.749635
vt 0.872753 0.656968
vt 0.817055 0.666888
vt 0.847264 0.608990
vt 0.619405 0.086488
vt 0.189972 0.714484
vt 0.740007 0.503087
vt 0.463325 0.879824
vn -0.2706 -0.7882 -0.5528
vn 0.6615 -0.3028 0.6861
vn -0.9530 0.2162 -0.2124
vn 0.6811 0.1909 0.7068
vn -0.7682 0.0762 0.6356
vn -0.5493 0.8310 -0.0877
vn 0.7708 0.5416 0.3355
vn 0.3548 -0.0088 -0.9349
vn 0.9460 0.0826 0.3134
vn -0.8433 0.3262 -0.4272
vn -0.6383 -0.4283 -0.6396
vn -0.8418 0.0553 0.5370
vn -0.9444 0.0626 0.3229
vn -0.5900 -0.5916 -0.5495
vn -0.7153 -0.6175 -0.3273
vn -0.9988 0.0196 -0.0452
vn 0.0726 -0.4181 -0.9055
vn 0.3035 -0.1481 -0.9413
vn 0.5797 -0.3484 -0.7366
vn -0.8493 0.2343 0.4731
vn -0.9310 0.2115 0.2975
vn 0.9075 0.2301 0.3516
vn 0.7969 0.5771 0.1787
vn -0.8422 0.1581 -0.5154
vn 0.9005 0.3899 0.1925
vn 0.6209 -0.5308 0.5768
vn -0.6343 0.4744 -0.6105
vn 0.8067 0.5859 -0.0769
vn 0.7047 -0.6650 0.2473
vn 0.5059 -0.8234 -0.2570
vn 0.9827 0.0143 0.1849
vn 0.4046 -0.2353 -0.8837
vn 0.7956 -0.0847 -0.5998
vn 0.3426 -0.2095 -0.9158
vn 0.0410 -0.9618 -0.2705
vn 0.0704 -0.8992 -0.4319
vn -0.3928 -0.8649 -0.3124
vn 0.5275 -0.5949 0.6066
vn -0.4825 0.6787 -0.5536
vn 0.7280 0.6790 -0.0949
vn 0.5835 0.7767 0.2371
vn -0.8487 -0.1368 0.5108
vn -0.6225 -0.6323 -0.4612
vn -0.9987 0.0196 -0.0467
vn 0.0971 -0.4416 -0.8920
vn 0.9441 0.3045 -0.1262
vn -0.8697 0.2524 -0.4242
vn 0.6994 0.5647 0.4381
vn 0.5403 0.6259 0.5625
vn 0.6516 0.5746 0.4953
vn 0.8960 0.3855 0.2203
vn 0.5511 -0.3835 0.7411
vn -0.2988 -0.8919 0.3394
vn 0.6404 -0.3752 0.6701
vn -0.7699 0.0211 0.6378
vn -0.9376 0.3145 -0.1482
vn -0.9395 0.3218 -0.1177
vn 0.5624 -0.3343 -0.7563
vn 0.9916 -0.0911 0.0918
vn 0.4760 -0.1469 -0.8671
vn 0.7880 0.0647 0.6122
vn -0.7626 0.6468 -0.0111
vn -0.9184 0.3913 -0.0582
vn -0.7708 0.0665 0.6335
vn -0.9859 -0.1664 -0.0175
vn -0.8662 0.2205 0.4485
vn 0.4690 -0.1660 -0.8674
vn 0.0465 -0.0209 0.9987
vn 0.3669 0.1020 -0.9246
s off
f 16/1/1 10/2/1 26/3/1
f 34/4/2 8/5/2 31/6/2
f 33/7/3 21/8/3 6/9/3
f 2/10/4 13/11/4 17/12/4
f 13/11/5 9/13/5 32/14/5
f 18/15/6 5/16/6 19/17/6
f 27/18/7 20/19/7 28/20/7
f 36/21/8 25/22/8 37/23/8
f 4/24/9 3/25/9 28/26/9
f 15/27/10 33/28/10 5/29/10
f 29/30/11 26/31/11 21/32/11
f 22/33/12 13/34/12 30/35/12
f 12/36/13 22/33/13 6/37/13
f 10/2/14 7/38/14 24/39/14
f 26/3/15 10/2/15 21/40/15
f 24/39/16 6/41/16 21/40/16
f 26/3/17 25/22/17 16/1/17
f 36/42/18 37/43/18 27/44/18
f 37/43/19 11/45/19 27/44/19
f 12/46/20 9/13/20 13/11/20
f 12/46/21 6/47/21 23/48/21
f 2/10/22 4/49/22 28/50/22
f 28/50/23 20/51/23 2/10/23
f 15/52/24 29/53/24 21/8/24
f 1/54/25 20/51/25 27/55/25
f 4/56/26 32/57/26 8/5/26
f 5/16/27 14/58/27 15/59/27
f 1/54/28 27/60/28 14/58/28
f 35/61/29 3/62/29 34/4/29
f 16/1/30 35/61/30 34/4/30
f 3/62/31 36/42/31 28/50/31
f 25/63/32 36/42/32 16/1/32
f 11/45/33 37/43/33 25/64/33
f 15/52/34 25/65/34 29/53/34
f 16/1/35 34/4/35 10/2/35
f 10/2/36 34/4/36 31/6/36
f 10/2/37 31/6/37 7/38/37
f 34/4/38 3/62/38 8/5/38
f 14/58/39 5/16/39 18/15/39
f 1/54/40 14/58/40 18/15/40
f 1/54/41 18/15/41 19/17/41
f 13/34/12 22/33/12 12/36/12
f 7/38/42 8/5/42 23/66/42
f 10/2/43 24/39/43 21/40/43
f 24/39/44 23/66/44 6/41/44
f 29/67/45 25/22/45 26/3/45
f 28/50/46 36/42/46 27/44/46
f 33/7/47 15/52/47 21/8/47
f 2/68/48 1/54/48 19/17/48
f 19/17/49 30/69/49 13/70/49
f 19/17/50 13/71/50 2/68/50
f 2/72/51 20/51/51 1/54/51
f 3/62/52 4/56/52 8/5/52
f 7/38/53 31/6/53 8/5/53
f 32/57/54 4/56/54 17/73/54
f 23/66/55 8/5/55 32/57/55
f 5/16/56 6/74/56 22/75/56
f 5/16/57 33/76/57 6/74/57
f 16/1/58 36/42/58 35/61/58
f 3/62/59 35/61/59 36/42/59
f 15/52/60 11/45/60 25/65/60
f 2/10/61 17/12/61 4/49/61
f 30/69/62 19/17/62 5/16/62
f 30/35/63 5/77/63 22/33/63
f 23/66/64 32/57/64 9/78/64
f 23/66/65 24/39/65 7/38/65
f 23/48/66 9/13/66 12/46/66
f 11/79/67 15/59/67 27/60/67
f 13/11/68 32/80/68 17/12/68
f 27/60/69 15/59/69 14/58/69
