# Blender v2.82 (sub 7) OBJ File: ''
# www.blender.org
o Cylinder
v -0.127556 3.129707 -0.346557
v -0.047750 3.807663 -0.364985
v 0.276025 3.151886 -0.170623
v 0.186105 3.807390 -0.300552
v 0.306811 3.807663 0.164094
v 0.217461 3.108448 0.269591
v -0.302349 3.097963 0.115477
v -0.170085 3.757983 0.370790
v -0.336304 3.812475 -0.113172
v 0.425887 1.520128 -1.000000
v 0.425887 2.094241 -0.425887
v 1.000000 1.520128 -0.425887
v 0.425887 0.094241 -0.425887
v 0.425887 0.668354 -1.000000
v 1.000000 0.668354 -0.425887
v 1.000000 1.520128 0.425887
v 0.425887 2.094241 0.425887
v 0.425887 1.520128 1.000000
v 1.000000 0.668354 0.425887
v 0.425887 0.668354 1.000000
v 0.425887 0.094241 0.425887
v -0.425887 1.520128 -1.000000
v -1.000000 1.520128 -0.425887
v -0.425887 2.094241 -0.425887
v -1.000000 0.668354 -0.425887
v -0.425887 0.668354 -1.000000
v -0.425887 0.094241 -0.425887
v -1.000000 1.520128 0.425887
v -0.425887 1.520128 1.000000
v -0.425887 2.094241 0.425887
v -0.425887 0.094241 0.425887
v -0.425887 0.668354 1.000000
v -1.000000 0.668354 0.425887
v -0.157725 1.994241 0.157725
v -0.157725 2.086516 0.250000
v -0.250000 2.086516 0.157725
v -0.157725 3.401966 0.250000
v -0.157725 3.494241 0.157725
v -0.250000 3.401966 0.157725
v -0.157725 1.994241 -0.157725
v -0.250000 2.086516 -0.157725
v -0.157725 2.086516 -0.250000
v -0.157725 3.494241 -0.157725
v -0.157725 3.401966 -0.250000
v -0.250000 3.401966 -0.157725
v 0.157725 1.994241 0.157725
v 0.250000 2.086516 0.157725
v 0.157725 2.086516 0.250000
v 0.157725 3.494241 0.157725
v 0.157725 3.401966 0.250000
v 0.250000 3.401966 0.157725
v 0.157725 1.994241 -0.157725
v 0.157725 2.086516 -0.250000
v 0.250000 2.086516 -0.157725
v 0.157725 3.494241 -0.157725
v 0.250000 3.401966 -0.157725
v 0.157725 3.401966 -0.250000
vt 0.981604 0.897785
vt 0.904448 0.790128
vt 0.981604 0.750821
vt 0.251269 0.980999
vt 0.169360 0.867451
vt 0.251269 0.836248
vt 0.903085 0.900719
vt 0.807051 0.796909
vt 0.903085 0.750821
vt 0.652155 0.820590
vt 0.652155 0.968139
vt 0.560360 0.936065
vt 0.826782 0.995334
vt 0.807051 0.909933
vt 0.913282 0.902082
vt 0.913282 0.999319
vt 0.094046 0.848407
vt 0.137299 0.828419
vt 0.137299 0.975383
vt 0.092683 0.960869
vt 0.000681 0.940172
vt 0.092683 0.828419
vt 0.330210 0.865242
vt 0.422544 0.820590
vt 0.422544 0.970488
vt 0.558997 0.820590
vt 0.558997 0.921675
vt 0.423907 0.862418
vt 0.805689 0.919500
vt 0.805689 0.994735
vt 0.672133 0.982218
vt 0.854324 0.000681
vt 0.923887 0.029340
vt 0.923887 0.130425
vt 0.821716 0.121466
vt 0.814880 0.027413
vt 0.338039 0.000681
vt 0.505356 0.000681
vt 0.505356 0.167998
vt 0.338039 0.167998
vt 0.000681 0.169360
vt 0.167998 0.169360
vt 0.167998 0.336677
vt 0.000681 0.336677
vt 0.000681 0.167998
vt 0.000681 0.000681
vt 0.167998 0.000681
vt 0.167998 0.167998
vt 0.000681 0.338039
vt 0.167998 0.338039
vt 0.167998 0.505356
vt 0.000681 0.505356
vt 0.169360 0.167998
vt 0.169360 0.000681
vt 0.336677 0.000681
vt 0.336677 0.167998
vt 0.667568 0.249104
vt 0.805688 0.169360
vt 0.805688 0.328848
vt 0.813517 0.000681
vt 0.813517 0.160169
vt 0.675397 0.080425
vt 0.945171 0.489698
vt 0.807051 0.409954
vt 0.945171 0.330210
vt 0.945171 0.328848
vt 0.807051 0.249104
vt 0.945171 0.169360
vt 0.805689 0.330210
vt 0.805688 0.489698
vt 0.667568 0.409954
vt 0.667569 0.578633
vt 0.805689 0.498890
vt 0.805689 0.658377
vt 0.138801 0.827056
vt 0.000681 0.747312
vt 0.138801 0.667569
vt 0.307480 0.675397
vt 0.307480 0.834885
vt 0.169360 0.755141
vt 0.666206 0.328848
vt 0.498890 0.328848
vt 0.498890 0.169360
vt 0.666206 0.169360
vt 0.666206 0.497527
vt 0.498890 0.497527
vt 0.498890 0.338039
vt 0.666206 0.338039
vt 0.330210 0.498890
vt 0.497527 0.498890
vt 0.497527 0.658377
vt 0.330210 0.658377
vt 0.328848 0.506718
vt 0.328848 0.674035
vt 0.169360 0.674035
vt 0.169360 0.506718
vt 0.167998 0.666206
vt 0.000681 0.666206
vt 0.000681 0.506718
vt 0.167998 0.506718
vt 0.330210 0.659740
vt 0.497527 0.659740
vt 0.497527 0.819227
vt 0.330210 0.819227
vt 0.666206 0.658377
vt 0.498890 0.658377
vt 0.498890 0.498890
vt 0.666206 0.498890
vt 0.674035 0.160169
vt 0.506718 0.160169
vt 0.506718 0.000681
vt 0.674035 0.000681
vt 0.497527 0.497527
vt 0.330210 0.497527
vt 0.330210 0.338039
vt 0.497527 0.338039
vt 0.498890 0.659740
vt 0.666206 0.659740
vt 0.666206 0.819227
vt 0.498890 0.819227
vt 0.328848 0.338039
vt 0.328848 0.505356
vt 0.169360 0.505356
vt 0.169360 0.338039
vt 0.497527 0.169360
vt 0.497527 0.336677
vt 0.338039 0.336677
vt 0.338039 0.169360
vt 0.169360 0.169360
vt 0.336677 0.169360
vt 0.336677 0.336677
vt 0.169360 0.336677
vt 0.870379 0.749458
vt 0.870379 0.491061
vt 0.932343 0.491061
vt 0.932343 0.749458
vt 0.680396 0.918137
vt 0.680396 0.659740
vt 0.742361 0.659740
vt 0.742361 0.918137
vt 0.252631 0.961540
vt 0.252631 0.899575
vt 0.314596 0.899575
vt 0.314596 0.961540
vt 0.805689 0.659740
vt 0.805689 0.918137
vt 0.743724 0.918137
vt 0.743724 0.659740
vt 0.869016 0.491061
vt 0.869016 0.749458
vt 0.807051 0.749458
vt 0.807051 0.491061
vt 0.471031 0.935854
vt 0.493231 0.923037
vt 0.493231 0.948671
vt 0.518156 0.935854
vt 0.540355 0.923037
vt 0.540355 0.948671
vt 0.675717 0.900217
vt 0.653517 0.887400
vt 0.675717 0.874583
vt 0.516793 0.923037
vt 0.516793 0.948671
vt 0.494593 0.935854
vt 0.447469 0.935854
vt 0.469668 0.923037
vt 0.469668 0.948671
vt 0.675717 0.846223
vt 0.653517 0.833407
vt 0.675717 0.820590
vt 0.675717 0.873220
vt 0.653517 0.860403
vt 0.675717 0.847586
vt 0.446106 0.923037
vt 0.446106 0.948671
vt 0.423907 0.935854
vt 0.878208 0.131788
vt 0.940172 0.131788
vt 0.940172 0.157422
vt 0.878208 0.157422
vt 0.960703 0.749458
vt 0.960703 0.491061
vt 0.986337 0.491061
vt 0.986337 0.749458
vt 0.972168 0.393538
vt 0.972168 0.455503
vt 0.946534 0.455503
vt 0.946534 0.393538
vt 0.959340 0.491061
vt 0.959340 0.749458
vt 0.933706 0.749458
vt 0.933706 0.491061
vt 0.814880 0.131788
vt 0.876845 0.131788
vt 0.876845 0.157422
vt 0.814880 0.157422
vt 0.941642 0.964047
vt 0.941642 0.902082
vt 0.967276 0.902082
vt 0.967276 0.964047
vt 0.972168 0.070450
vt 0.972168 0.328848
vt 0.946534 0.328848
vt 0.946534 0.070450
vt 0.925250 0.062646
vt 0.925250 0.000681
vt 0.950884 0.000681
vt 0.950884 0.062646
vt 0.946534 0.392175
vt 0.946534 0.330210
vt 0.972168 0.330210
vt 0.972168 0.392175
vt 0.165798 0.667569
vt 0.165798 0.925966
vt 0.140164 0.925966
vt 0.140164 0.667569
vt 0.914645 0.964047
vt 0.914645 0.902082
vt 0.940279 0.902082
vt 0.940279 0.964047
vt 0.952247 0.062646
vt 0.952247 0.000681
vt 0.977881 0.000681
vt 0.977881 0.062646
vt 0.314596 0.898212
vt 0.252631 0.898212
vt 0.252631 0.836248
vt 0.314596 0.836248
vn 0.4022 -0.1246 -0.9070
vn 0.9868 -0.1079 0.1206
vn -0.2655 -0.3011 0.9159
vn -0.9198 -0.1586 -0.3589
vn 0.0594 -0.9959 -0.0676
vn 0.2651 -0.0574 -0.9625
vn 0.9646 0.0826 -0.2506
vn 0.3883 0.0888 0.9172
vn -0.9419 0.0610 0.3304
vn -0.6559 0.0568 -0.7527
vn -0.0166 0.9984 0.0533
vn 0.0000 -1.0000 0.0000
vn -1.0000 0.0000 0.0000
vn 0.0000 0.0000 1.0000
vn 0.0000 1.0000 0.0000
vn 1.0000 0.0000 0.0000
vn 0.5774 0.5774 -0.5774
vn 0.5774 -0.5774 -0.5774
vn 0.5774 0.5774 0.5774
vn 0.5774 -0.5774 0.5774
vn -0.5774 0.5774 -0.5774
vn -0.5774 -0.5774 -0.5774
vn -0.5774 0.5774 0.5774
vn -0.5774 -0.5774 0.5774
vn -0.7071 -0.7071 0.0000
vn 0.0000 -0.7071 -0.7071
vn 0.7071 0.0000 -0.7071
vn -0.7071 0.0000 0.7071
vn 0.7071 0.0000 0.7071
vn -0.7071 0.0000 -0.7071
vn 0.0000 0.7071 0.7071
vn 0.7071 0.7071 0.0000
vn 0.0000 -0.7071 0.7071
vn -0.7071 0.7071 0.0000
vn 0.0000 0.7071 -0.7071
vn 0.7071 -0.7071 0.0000
vn 0.0000 0.0000 -1.0000
vn -0.5773 -0.5773 0.5774
vn -0.5773 0.5773 0.5774
vn -0.5773 -0.5773 -0.5774
vn -0.5773 0.5773 -0.5774
vn 0.5773 -0.5773 0.5774
vn 0.5773 0.5773 0.5774
vn 0.5773 -0.5773 -0.5774
vn 0.5773 0.5773 -0.5774
s off
f 4/1/1 3/2/1 1/3/1
f 5/4/2 6/5/2 3/6/2
f 8/7/3 7/8/3 6/9/3
f 9/10/4 1/11/4 7/12/4
f 3/13/5 6/14/5 7/15/5 1/16/5
f 2/17/6 4/18/6 1/19/6
f 4/20/7 5/21/7 3/22/7
f 5/23/8 8/24/8 6/25/8
f 8/26/9 9/27/9 7/28/9
f 9/29/10 2/30/10 1/31/10
f 2/32/11 9/33/11 8/34/11 5/35/11 4/36/11
f 27/37/12 13/38/12 21/39/12 31/40/12
f 33/41/13 28/42/13 23/43/13 25/44/13
f 20/45/14 18/46/14 29/47/14 32/48/14
f 11/49/15 24/50/15 30/51/15 17/52/15
f 15/53/16 12/54/16 16/55/16 19/56/16
f 10/57/17 11/58/17 12/59/17
f 13/60/18 14/61/18 15/62/18
f 16/63/19 17/64/19 18/65/19
f 19/66/20 20/67/20 21/68/20
f 22/69/21 23/70/21 24/71/21
f 25/72/22 26/73/22 27/74/22
f 28/75/23 29/76/23 30/77/23
f 31/78/24 32/79/24 33/80/24
f 27/81/25 31/82/25 33/83/25 25/84/25
f 13/85/26 27/86/26 26/87/26 14/88/26
f 12/89/27 15/90/27 14/91/27 10/92/27
f 32/93/28 29/94/28 28/95/28 33/96/28
f 18/97/29 20/98/29 19/99/29 16/100/29
f 22/101/30 26/102/30 25/103/30 23/104/30
f 17/105/31 30/106/31 29/107/31 18/108/31
f 11/109/32 17/110/32 16/111/32 12/112/32
f 31/113/33 21/114/33 20/115/33 32/116/33
f 30/117/34 24/118/34 23/119/34 28/120/34
f 24/121/35 11/122/35 10/123/35 22/124/35
f 21/125/36 13/126/36 15/127/36 19/128/36
f 26/129/37 22/130/37 10/131/37 14/132/37
f 48/133/14 50/134/14 37/135/14 35/136/14
f 54/137/16 56/138/16 51/139/16 47/140/16
f 55/141/15 43/142/15 38/143/15 49/144/15
f 36/145/13 39/146/13 45/147/13 41/148/13
f 42/149/37 44/150/37 57/151/37 53/152/37
f 34/153/38 35/154/38 36/155/38
f 37/156/39 38/157/39 39/158/39
f 40/159/40 41/160/40 42/161/40
f 43/162/41 44/163/41 45/164/41
f 46/165/42 47/166/42 48/167/42
f 49/168/43 50/169/43 51/170/43
f 52/171/44 53/172/44 54/173/44
f 55/174/45 56/175/45 57/176/45
f 40/177/25 34/178/25 36/179/25 41/180/25
f 35/181/28 37/182/28 39/183/28 36/184/28
f 38/185/34 43/186/34 45/187/34 39/188/34
f 44/189/30 42/190/30 41/191/30 45/192/30
f 52/193/26 40/194/26 42/195/26 53/196/26
f 43/197/35 55/198/35 57/199/35 44/200/35
f 56/201/27 54/202/27 53/203/27 57/204/27
f 46/205/36 52/206/36 54/207/36 47/208/36
f 55/209/32 49/210/32 51/211/32 56/212/32
f 50/213/29 48/214/29 47/215/29 51/216/29
f 34/217/33 46/218/33 48/219/33 35/220/33
f 49/221/31 38/222/31 37/223/31 50/224/31
f 40/225/12 52/226/12 46/227/12 34/228/12
